# xmcd
#
# Track frame offsets: 
#        150
#        15825
#        32937
#        53013
#        70870
#        84428
#        97877
#        115062
#        131080
#        145993
#        162321
#        180335
#
# Disc length: 2675 seconds
#
# Revision: 0
# Processed by: cddbd v1.5.2PL0 Copyright (c) Steve Scherf et al.
# Submitted via: ExactAudioCopy v0.99pb3
#
DISCID=910a710c
DTITLE=Carolyn Wonderland - Miss Understood
DYEAR=2008
DGENRE=Blues
TTITLE0=Misunderstood
TTITLE1=I Found The Lions
TTITLE2=Bad Girl Blues
TTITLE3=Walk On
TTITLE4=Still Alive And Well
TTITLE5=Long Way To Go
TTITLE6=I Don't Want To Fall For You
TTITLE7=Trouble In The City
TTITLE8=Throw My Love
TTITLE9=I Live Alone With Someone
TTITLE10=The Farmer Song
TTITLE11=Feed Me To The Lions
EXTD=
EXTT0=
EXTT1=
EXTT2=
EXTT3=
EXTT4=
EXTT5=
EXTT6=
EXTT7=
EXTT8=
EXTT9=
EXTT10=
EXTT11=
PLAYORDER=
